<?xml version="1.0" encoding="UTF-8" standalone="no"?> <!-- Created with Vectornator for iOS (http://vectornator.io/) --><!DOCTYPE svg PUBLIC "-//W3C//DTD SVG 1.1//EN" "http://www.w3.org/Graphics/SVG/1.1/DTD/svg11.dtd">
<svg height="100%" style="fill-rule:nonzero;clip-rule:evenodd;stroke-linecap:round;stroke-linejoin:round;" version="1.1" viewBox="0 0 1024 1024" width="100%" xml:space="preserve" xmlns="http://www.w3.org/2000/svg" xmlns:vectornator="http://vectornator.io" xmlns:xlink="http://www.w3.org/1999/xlink">
<metadata>
<vectornator:setting key="IsTimeLapseWatermarkDisabled" value="false"/>
<vectornator:setting key="UndoHistoryDisabled" value="true"/>
<vectornator:setting key="VNDimensionsVisible" value="true"/>
<vectornator:setting key="VNSnapToGuides" value="true"/>
<vectornator:setting key="WDCMYKEnabledKey" value="false"/>
<vectornator:setting key="WDDisplayWhiteBackground" value="false"/>
<vectornator:setting key="WDDynamicGuides" value="false"/>
<vectornator:setting key="WDGuidesVisible" value="true"/>
<vectornator:setting key="WDIsolateActiveLayer" value="false"/>
<vectornator:setting key="WDOutlineMode" value="false"/>
<vectornator:setting key="WDRulersVisible" value="true"/>
<vectornator:setting key="WDSnapToEdges" value="false"/>
<vectornator:setting key="WDSnapToGrid" value="false"/>
<vectornator:setting key="WDSnapToPoints" value="false"/>
<vectornator:setting key="WDUnits" value="Points"/>
</metadata>
<defs>
<linearGradient gradientTransform="matrix(3.10428 0 0 3.10428 -95.7318 2.57475)" gradientUnits="userSpaceOnUse" id="LinearGradient" x1="83.3309" x2="307.623" y1="260.691" y2="260.691">
<stop offset="0" stop-color="#81fced"/>
<stop offset="1" stop-color="#00f6d8"/>
</linearGradient>
<linearGradient gradientTransform="matrix(3.10428 0 0 3.10428 -95.7318 2.57475)" gradientUnits="userSpaceOnUse" id="LinearGradient_2" x1="98.4419" x2="292.796" y1="95.7064" y2="95.7064">
<stop offset="0" stop-color="#81fced"/>
<stop offset="1" stop-color="#00f6d8"/>
</linearGradient>
<linearGradient gradientTransform="matrix(3.10428 0 0 3.10428 -95.7318 2.57475)" gradientUnits="userSpaceOnUse" id="LinearGradient_3" x1="158.812" x2="233.037" y1="229.44" y2="229.44">
<stop offset="0" stop-color="#81fced"/>
<stop offset="1" stop-color="#00f6d8"/>
</linearGradient>
<linearGradient gradientTransform="matrix(3.10428 0 0 3.10428 -95.7318 2.57475)" gradientUnits="userSpaceOnUse" id="LinearGradient_4" x1="259.118" x2="320.575" y1="203.822" y2="203.822">
<stop offset="0" stop-color="#81fced"/>
<stop offset="1" stop-color="#00f6d8"/>
</linearGradient>
<linearGradient gradientTransform="matrix(3.10428 0 0 3.10428 -95.7318 2.57475)" gradientUnits="userSpaceOnUse" id="LinearGradient_5" x1="71.0218" x2="132.493" y1="202.527" y2="202.527">
<stop offset="0" stop-color="#81fced"/>
<stop offset="1" stop-color="#00f6d8"/>
</linearGradient>
<linearGradient gradientTransform="matrix(3.10428 0 0 3.10428 -95.7318 2.57475)" gradientUnits="userSpaceOnUse" id="LinearGradient_6" x1="79.9813" x2="149.504" y1="85.6565" y2="85.6565">
<stop offset="0" stop-color="#81fced"/>
<stop offset="1" stop-color="#00f6d8"/>
</linearGradient>
<linearGradient gradientTransform="matrix(3.10428 0 0 3.10428 -95.7318 2.57475)" gradientUnits="userSpaceOnUse" id="LinearGradient_7" x1="241.671" x2="310.987" y1="85.7583" y2="85.7583">
<stop offset="0" stop-color="#81fced"/>
<stop offset="1" stop-color="#00f6d8"/>
</linearGradient>
<linearGradient gradientTransform="matrix(3.10428 0 0 3.10428 -95.7318 2.57475)" gradientUnits="userSpaceOnUse" id="LinearGradient_8" x1="75.3253" x2="120.752" y1="116.525" y2="116.525">
<stop offset="0" stop-color="#81fced"/>
<stop offset="1" stop-color="#00f6d8"/>
</linearGradient>
<linearGradient gradientTransform="matrix(3.10428 0 0 3.10428 -95.7318 2.57475)" gradientUnits="userSpaceOnUse" id="LinearGradient_9" x1="270.723" x2="316.596" y1="116.383" y2="116.383">
<stop offset="0" stop-color="#81fced"/>
<stop offset="1" stop-color="#00f6d8"/>
</linearGradient>
<linearGradient gradientTransform="matrix(3.10428 0 0 3.10428 -95.7318 2.57475)" gradientUnits="userSpaceOnUse" id="LinearGradient_10" x1="284.671" x2="320.82" y1="159.269" y2="159.269">
<stop offset="0" stop-color="#81fced"/>
<stop offset="1" stop-color="#00f6d8"/>
</linearGradient>
<linearGradient gradientTransform="matrix(3.10428 0 0 3.10428 -95.7318 2.57475)" gradientUnits="userSpaceOnUse" id="LinearGradient_11" x1="70.7242" x2="106.878" y1="159.263" y2="159.263">
<stop offset="0" stop-color="#81fced"/>
<stop offset="1" stop-color="#00f6d8"/>
</linearGradient>
<linearGradient gradientTransform="matrix(3.10428 0 0 3.10428 -95.7318 2.57475)" gradientUnits="userSpaceOnUse" id="LinearGradient_12" x1="183.889" x2="207.72" y1="177.249" y2="177.249">
<stop offset="0" stop-color="#81fced"/>
<stop offset="1" stop-color="#00f6d8"/>
</linearGradient>
<linearGradient gradientTransform="matrix(3.10428 0 0 3.10428 -95.7318 2.57475)" gradientUnits="userSpaceOnUse" id="LinearGradient_13" x1="240.744" x2="285.68" y1="110.815" y2="110.815">
<stop offset="0" stop-color="#81fced"/>
<stop offset="1" stop-color="#00f6d8"/>
</linearGradient>
<linearGradient gradientTransform="matrix(3.10428 0 0 3.10428 -95.7318 2.57475)" gradientUnits="userSpaceOnUse" id="LinearGradient_14" x1="106.05" x2="150.824" y1="110.759" y2="110.759">
<stop offset="0" stop-color="#81fced"/>
<stop offset="1" stop-color="#00f6d8"/>
</linearGradient>
<linearGradient gradientTransform="matrix(3.10428 0 0 3.10428 -95.7318 2.57475)" gradientUnits="userSpaceOnUse" id="LinearGradient_15" x1="113.385" x2="151.574" y1="172.026" y2="172.026">
<stop offset="0" stop-color="#81fced"/>
<stop offset="1" stop-color="#00f6d8"/>
</linearGradient>
<linearGradient gradientTransform="matrix(3.10428 0 0 3.10428 -95.7318 2.57475)" gradientUnits="userSpaceOnUse" id="LinearGradient_16" x1="239.5" x2="278.294" y1="172.17" y2="172.17">
<stop offset="0" stop-color="#81fced"/>
<stop offset="1" stop-color="#00f6d8"/>
</linearGradient>
<linearGradient gradientTransform="matrix(3.10428 0 0 3.10428 -95.7318 2.57475)" gradientUnits="userSpaceOnUse" id="LinearGradient_17" x1="78.1018" x2="132.181" y1="48.1276" y2="48.1276">
<stop offset="0" stop-color="#81fced"/>
<stop offset="1" stop-color="#00f6d8"/>
</linearGradient>
<linearGradient gradientTransform="matrix(3.10428 0 0 3.10428 -95.7318 2.57475)" gradientUnits="userSpaceOnUse" id="LinearGradient_18" x1="259.012" x2="313.411" y1="48.1656" y2="48.1656">
<stop offset="0" stop-color="#81fced"/>
<stop offset="1" stop-color="#00f6d8"/>
</linearGradient>
<linearGradient gradientTransform="matrix(3.10428 0 0 3.10428 -95.7318 2.57475)" gradientUnits="userSpaceOnUse" id="LinearGradient_19" x1="128.126" x2="173.999" y1="139.313" y2="139.313">
<stop offset="0" stop-color="#81fced"/>
<stop offset="1" stop-color="#00f6d8"/>
</linearGradient>
<linearGradient gradientTransform="matrix(3.10428 0 0 3.10428 -95.7318 2.57475)" gradientUnits="userSpaceOnUse" id="LinearGradient_20" x1="217.467" x2="263.621" y1="139.324" y2="139.324">
<stop offset="0" stop-color="#81fced"/>
<stop offset="1" stop-color="#00f6d8"/>
</linearGradient>
<linearGradient gradientTransform="matrix(3.10428 0 0 3.10428 -95.7318 2.57475)" gradientUnits="userSpaceOnUse" id="LinearGradient_21" x1="259.311" x2="290.682" y1="134.156" y2="134.156">
<stop offset="0" stop-color="#81fced"/>
<stop offset="1" stop-color="#00f6d8"/>
</linearGradient>
<linearGradient gradientTransform="matrix(3.10428 0 0 3.10428 -95.7318 2.57475)" gradientUnits="userSpaceOnUse" id="LinearGradient_22" x1="100.855" x2="132.156" y1="134.071" y2="134.071">
<stop offset="0" stop-color="#81fced"/>
<stop offset="1" stop-color="#00f6d8"/>
</linearGradient>
<linearGradient gradientTransform="matrix(3.10428 0 0 3.10428 -95.7318 2.57475)" gradientUnits="userSpaceOnUse" id="LinearGradient_23" x1="85.639" x2="114.724" y1="21.9745" y2="21.9745">
<stop offset="0" stop-color="#81fced"/>
<stop offset="1" stop-color="#00f6d8"/>
</linearGradient>
<linearGradient gradientTransform="matrix(3.10428 0 0 3.10428 -95.7318 2.57475)" gradientUnits="userSpaceOnUse" id="LinearGradient_24" x1="276.947" x2="305.543" y1="21.8371" y2="21.8371">
<stop offset="0" stop-color="#81fced"/>
<stop offset="1" stop-color="#00f6d8"/>
</linearGradient>
<linearGradient gradientTransform="matrix(3.10428 0 0 3.10428 -95.7318 2.57475)" gradientUnits="userSpaceOnUse" id="LinearGradient_25" x1="256.19" x2="289.934" y1="158.968" y2="158.968">
<stop offset="0" stop-color="#81fced"/>
<stop offset="1" stop-color="#00f6d8"/>
</linearGradient>
<linearGradient gradientTransform="matrix(3.10428 0 0 3.10428 -95.7318 2.57475)" gradientUnits="userSpaceOnUse" id="LinearGradient_26" x1="101.604" x2="135.348" y1="158.974" y2="158.974">
<stop offset="0" stop-color="#81fced"/>
<stop offset="1" stop-color="#00f6d8"/>
</linearGradient>
<linearGradient gradientTransform="matrix(3.10428 0 0 3.10428 -95.7318 2.57475)" gradientUnits="userSpaceOnUse" id="LinearGradient_27" x1="231.299" x2="247.838" y1="128.719" y2="128.719">
<stop offset="0" stop-color="#81fced"/>
<stop offset="1" stop-color="#00f6d8"/>
</linearGradient>
<linearGradient gradientTransform="matrix(3.10428 0 0 3.10428 -95.7318 2.57475)" gradientUnits="userSpaceOnUse" id="LinearGradient_28" x1="143.717" x2="160.042" y1="128.782" y2="128.782">
<stop offset="0" stop-color="#81fced"/>
<stop offset="1" stop-color="#00f6d8"/>
</linearGradient>
</defs>
<g id="Layer 1" vectornator:layerName="Layer 1">
<g opacity="1">
<path d="M859.216 739.66C743.92 832.763 629.425 925.224 514.203 1018.27C397.231 922.166 280.351 826.142 162.951 729.692C165.639 727.587 167.501 726.013 169.479 724.598C220.945 687.731 272.442 650.908 323.861 613.977C327.437 611.413 331.057 610.047 335.455 609.699C348.816 608.64 362.146 607.197 375.494 605.937C378.18 605.685 380.88 605.586 383.848 605.396C426.638 693.564 469.272 781.409 512.642 870.775C556.477 781.344 599.471 693.626 642.667 605.499C650.049 606.148 657.18 606.741 664.301 607.411C672.211 608.162 680.099 609.208 688.024 609.687C692.469 609.957 695.99 611.481 699.467 614.216C735.563 642.623 771.756 670.903 807.924 699.22C822.781 710.852 837.644 722.474 852.495 734.115C854.426 735.63 856.289 737.238 859.216 739.66" fill="url(#LinearGradient)" fill-rule="evenodd" opacity="1"/>
<path d="M381.933 182.202C384.683 182.202 387.393 182.202 390.106 182.202C471.305 182.159 552.504 182.041 633.702 182.227C640.044 182.239 643.366 180.11 646.47 174.736C659.76 151.74 673.481 128.988 687.208 106.25C689.086 103.136 691.523 100.125 694.341 97.8525C732.009 67.4306 769.791 37.1483 807.554 6.84743C809.06 5.63986 810.668 4.55957 813.189 2.72183C812.996 5.3791 813.117 6.98091 812.739 8.45233C807.731 27.9193 802.74 47.3893 797.509 66.7973C796.63 70.0537 795.109 73.3473 793.116 76.0605C776.089 99.2898 758.926 122.423 741.679 145.485C739.633 148.219 737.01 150.631 734.303 152.742C717.859 165.572 701.397 178.387 684.74 190.934C680.875 193.843 678.919 197.245 677.982 201.849C671.084 235.645 664.062 269.417 657.006 303.182C656.146 307.298 655.094 311.405 653.74 315.385C647.659 333.238 641.333 351.01 635.338 368.89C633.851 373.323 631.511 376.663 627.848 379.572C606.844 396.245 585.98 413.095 565.085 429.899C562.984 431.587 560.957 433.363 558.219 435.663C560.805 437.495 562.878 439.084 565.067 440.497C586.145 454.081 607.22 467.665 628.354 481.169C631.57 483.221 634.09 485.555 635.77 489.15C651.521 522.884 667.43 556.547 683.265 590.244C684.082 591.983 684.64 593.845 685.646 596.524C683.079 596.524 681.204 596.679 679.363 596.502C647.485 593.454 615.548 590.862 583.767 587.009C573.361 585.749 563.356 581.198 552.383 577.914C555.26 570.088 557.551 562.809 560.606 555.864C562.978 550.463 562.797 545.816 560.485 540.337C545.618 505.125 531.106 469.764 516.463 434.459C515.519 432.18 514.461 429.952 513.095 426.894C511.897 428.822 510.881 430.069 510.273 431.494C494.329 468.677 478.473 505.895 462.455 543.044C460.952 546.527 460.875 549.5 462.343 552.952C464.969 559.114 467.248 565.422 469.613 571.693C470.29 573.493 470.752 575.372 471.479 577.765C457.404 582.126 444.127 587.286 429.524 588.453C402.058 590.645 374.659 593.671 347.23 596.319C344.551 596.577 341.85 596.605 338.479 596.772C339.165 594.593 339.476 592.96 340.162 591.504C356.204 557.357 372.344 523.254 388.293 489.066C389.985 485.444 392.525 483.153 395.725 481.11C416.645 467.737 437.515 454.292 458.394 440.86C460.642 439.413 462.849 437.902 465.894 435.878C463.287 433.636 461.334 431.861 459.282 430.209C438.198 413.235 417.145 396.227 395.961 379.386C392.506 376.639 390.224 373.519 388.812 369.334C382.628 350.994 375.628 332.902 370.081 314.379C365.961 300.633 363.503 286.385 360.516 272.313C355.522 248.767 350.536 225.215 345.936 201.588C344.995 196.752 342.754 193.657 339.01 190.81C322.601 178.343 306.288 165.746 290.08 153.016C286.811 150.448 283.763 147.397 281.273 144.075C264.597 121.821 248.02 99.4916 231.627 77.029C229.215 73.726 227.327 69.7526 226.256 65.8039C220.988 46.4053 216.08 26.9135 211.048 7.45276C210.747 6.28865 210.477 5.11834 209.859 2.57594C212.352 4.11566 213.976 4.90103 215.342 5.99685C253.701 36.7541 292.058 67.5082 330.312 98.3927C332.925 100.507 335.074 103.434 336.818 106.352C350.449 129.15 363.928 152.041 377.463 174.898C378.85 177.238 380.303 179.539 381.933 182.202" fill="url(#LinearGradient_2)" fill-rule="evenodd" opacity="1"/>
<path d="M512.382 841.231C473.805 761.734 435.744 683.295 397.266 604.005C424.382 601.038 450.942 600.733 476.059 588.412C488.305 619.843 500.129 650.194 511.954 680.544C512.469 680.575 512.984 680.606 513.497 680.637C524.902 650.483 536.304 620.328 547.805 589.909C561.709 592.448 573.859 599.377 587.72 600.085C601.062 600.767 614.355 602.556 627.681 603.859C626.862 609.689 522.35 824.869 512.382 841.231" fill="url(#LinearGradient_3)" fill-rule="evenodd" opacity="1"/>
<path d="M899.423 544.281C887.959 605.433 876.628 665.879 865.285 726.378C860.151 724.578 716.509 612.979 708.643 604.719C710.087 603.486 711.418 602.133 712.949 601.071C734.179 586.372 755.397 571.652 776.739 557.118C779.293 555.379 782.488 553.911 785.505 553.631C820.86 550.369 856.239 547.348 891.613 544.306C893.798 544.117 896.008 544.281 899.423 544.281" fill="url(#LinearGradient_4)" fill-rule="evenodd" opacity="1"/>
<path d="M124.74 544.407C128.39 544.407 131.318 544.19 134.208 544.438C168.827 547.415 203.446 550.408 238.049 553.574C240.871 553.832 243.947 554.844 246.275 556.433C268.428 571.526 290.446 586.818 312.49 602.069C313.281 602.615 313.952 603.339 315.563 604.754C262.654 642.571 210.145 680.098 156.788 718.234C145.985 659.644 135.406 602.265 124.74 544.407" fill="url(#LinearGradient_5)" fill-rule="evenodd" opacity="1"/>
<path d="M152.553 183.551C213.26 190.464 273.095 197.275 333.284 204.13C335.904 216.587 338.434 228.445 340.895 240.319C345.53 262.673 349.631 285.154 354.927 307.353C357.969 320.099 362.927 332.383 367.006 344.881C367.837 347.42 368.61 349.975 368.3 353.402C366.602 351.856 364.867 350.35 363.212 348.758C342.112 328.422 320.96 308.148 300.006 287.666C296.389 284.13 292.552 282.541 287.592 282.025C261.417 279.321 235.282 276.239 209.109 273.504C205.266 273.1 202.864 271.806 200.892 268.373C185.681 241.893 170.275 215.525 154.965 189.105C154.133 187.668 153.624 186.044 152.553 183.551" fill="url(#LinearGradient_6)" fill-rule="evenodd" opacity="1"/>
<path d="M654.482 352.887C654.811 351.717 655.037 350.5 655.494 349.383C667.38 320.237 673.123 289.486 679.279 258.837C682.603 242.294 686.133 225.795 689.591 209.277C689.889 207.84 690.327 206.431 690.935 204.112C750.137 197.375 809.485 190.624 869.658 183.776C868.873 185.731 868.587 187.1 867.851 188.165C849.533 214.735 831.09 241.217 812.899 267.877C810.422 271.506 807.225 272.269 803.493 272.775C781.36 275.786 759.248 278.984 737.08 281.719C731.797 282.371 727.914 284.391 724.164 288.033C703.154 308.45 681.955 328.671 660.802 348.945C659.051 350.624 657.189 352.192 655.376 353.809C655.078 353.502 654.78 353.195 654.482 352.887" fill="url(#LinearGradient_7)" fill-rule="evenodd" opacity="1"/>
<path d="M204.022 440.718C181.689 441.625 159.944 442.509 138.099 443.397C138.782 437.331 196.612 298.648 203.959 285.206C228.303 287.913 252.992 290.66 279.117 293.566C276.261 296.875 274.529 298.924 272.75 300.929C255.286 320.586 237.914 340.329 220.257 359.811C216.687 363.757 215.185 368.035 214.474 373.064C211.481 394.176 208.327 415.263 205.204 436.357C205.027 437.543 204.58 438.688 204.022 440.718" fill="url(#LinearGradient_8)" fill-rule="evenodd" opacity="1"/>
<path d="M744.667 293.168C767.52 290.057 788.54 287.192 809.978 284.274C835.613 337.202 860.987 389.596 887.069 443.446C863.703 442.49 841.818 441.593 819.526 440.68C817.422 426.726 815.407 413.505 813.43 400.278C811.89 389.969 810.226 379.675 808.959 369.331C808.497 365.535 806.433 363.005 804.117 360.394C786.472 340.533 768.837 320.656 751.211 300.78C749.426 298.765 747.7 296.697 744.667 293.168" fill="url(#LinearGradient_9)" fill-rule="evenodd" opacity="1"/>
<path d="M890.462 455.897C893.758 481.433 896.922 505.888 900.184 531.139C862.582 534.46 825.942 537.695 787.968 541.047C798.299 511.122 808.201 482.417 818.374 452.936C842.234 453.913 865.929 454.888 890.462 455.897" fill="url(#LinearGradient_10)" fill-rule="evenodd" opacity="1"/>
<path d="M236.048 541.066C197.772 537.679 161.319 534.454 123.816 531.139C127.078 505.861 130.26 481.228 133.529 455.934C157.665 454.91 181.118 453.917 205.548 452.88C215.594 481.927 225.574 510.787 236.048 541.066" fill="url(#LinearGradient_11)" fill-rule="evenodd" opacity="1"/>
<path d="M512.482 646.093C511.045 642.818 510.198 641.058 509.49 639.242C498.442 610.788 487.456 582.313 476.324 553.893C474.886 550.221 474.576 547.045 476.221 543.245C487.574 517.061 498.684 490.774 509.909 464.536C510.551 463.031 511.514 461.665 512.734 459.52C513.951 462.093 514.839 463.791 515.568 465.555C526.331 491.451 537.047 517.362 547.843 543.245C549.128 546.328 549.622 549.091 548.334 552.474C537.006 582.148 525.88 611.9 514.677 641.62C514.258 642.722 513.64 643.75 512.482 646.093" fill="url(#LinearGradient_12)" fill-rule="evenodd" opacity="1"/>
<path d="M651.605 375.092C678.407 349.246 704.611 323.977 730.749 298.77C735.843 301.992 781.327 352.294 791.099 365.45C789.494 366.474 788.007 367.645 786.346 368.449C769.593 376.573 752.789 384.588 736.057 392.752C733.027 394.233 730.261 394.838 726.834 393.994C703.462 388.226 680.031 382.676 656.631 377.016C655.271 376.687 653.992 376.017 651.605 375.092" fill="url(#LinearGradient_13)" fill-rule="evenodd" opacity="1"/>
<path d="M372.47 375.136C369.887 376.061 368.36 376.772 366.755 377.163C343.873 382.707 320.976 388.193 298.097 393.749C294.9 394.525 291.997 394.808 288.797 393.234C271.009 384.474 253.119 375.918 235.273 367.276C234.624 366.962 234.065 366.453 233.479 366.047C235.562 361.291 285.078 304.867 292.904 298.429C319.203 323.782 345.546 349.181 372.47 375.136" fill="url(#LinearGradient_14)" fill-rule="evenodd" opacity="1"/>
<path d="M323.805 594.679C301.193 579.111 278.957 563.804 256.246 548.167C257.646 546.615 258.596 545.255 259.829 544.237C285.278 523.262 310.77 502.333 336.228 481.363C338.386 479.584 340.422 478.017 343.529 478.65C353.95 480.764 364.399 482.745 374.796 484.772C374.147 490.381 330.659 584.062 323.805 594.679" fill="url(#LinearGradient_15)" fill-rule="evenodd" opacity="1"/>
<path d="M768.17 547.877C745.071 563.777 722.86 579.065 699.659 595.034C682.088 558.437 665.276 522.201 647.743 485.211C655.727 483.565 662.898 482.05 670.084 480.616C683.513 477.94 683.523 477.953 693.937 486.505C716.546 505.069 739.148 523.635 761.744 542.218C763.622 543.764 765.398 545.431 768.17 547.877" fill="url(#LinearGradient_16)" fill-rule="evenodd" opacity="1"/>
<path d="M313.908 189.526C258.295 183.212 202.685 176.898 146.718 170.544L146.718 115.437C152.374 113.748 158.067 114.949 163.633 114.524C170.472 114.002 176.733 115.62 183.032 118.373C212.799 131.365 242.715 144.011 272.525 156.91C275.89 158.366 279.125 160.334 282.062 162.541C291.377 169.544 300.532 176.762 309.721 183.932C311.416 185.255 312.974 186.745 314.594 188.16C314.365 188.614 314.138 189.07 313.908 189.526" fill="url(#LinearGradient_17)" fill-rule="evenodd" opacity="1"/>
<path d="M877.183 114.541L877.183 170.558C821.303 176.903 765.721 183.214 708.314 189.73C710.921 187.169 712.129 185.732 713.575 184.602C723.556 176.82 733.542 169.046 743.628 161.407C745.969 159.628 748.586 158.088 751.283 156.927C782.494 143.483 813.72 130.072 845.023 116.848C848.338 115.448 852.154 114.821 855.779 114.641C862.674 114.299 869.597 114.541 877.183 114.541" fill="url(#LinearGradient_18)" fill-rule="evenodd" opacity="1"/>
<path d="M411.293 407.666C422.667 416.814 433.262 425.335 444.41 434.304C442.448 435.89 441.1 437.2 439.554 438.199C422.673 449.108 405.708 459.886 388.905 470.912C385.503 473.144 382.33 473.629 378.434 472.831C364.583 469.99 350.685 467.383 336.79 464.757C333.509 464.133 330.911 463.124 329.2 459.74C320.574 442.698 311.692 425.785 302.923 408.814C302.59 408.172 302.479 407.414 302.007 405.853C313.502 402.153 325.28 399.958 337.24 396.891C343.185 406.207 349.152 415.026 354.522 424.196C357.263 428.877 360.591 430.715 365.927 430.277C371.105 429.849 376.364 429.889 381.548 430.268C386.477 430.631 389.964 428.797 393.276 425.32C398.888 419.422 404.892 413.893 411.293 407.666" fill="url(#LinearGradient_19)" fill-rule="evenodd" opacity="1"/>
<path d="M612.289 408.043C618.088 413.482 623.849 418.2 628.76 423.679C633.525 428.997 638.924 430.943 645.856 430.267C650.276 429.832 654.79 429.941 659.235 430.251C663.702 430.558 666.533 428.978 668.874 425.073C674.471 415.732 680.506 406.652 686.733 396.883C698.566 399.78 710.235 402.635 722.621 405.668C720.188 410.464 718.21 414.419 716.177 418.346C709.332 431.552 702.344 444.689 695.682 457.988C693.745 461.853 691.346 464.1 686.95 464.873C672.788 467.366 658.679 470.15 644.577 472.963C641.488 473.575 638.908 473.345 636.158 471.551C618.085 459.776 599.909 448.15 581.771 436.466C581.156 436.065 580.628 435.528 579.346 434.457C590.416 425.579 601.142 416.98 612.289 408.043" fill="url(#LinearGradient_20)" fill-rule="evenodd" opacity="1"/>
<path d="M806.628 441.72C773.946 447.994 742.164 454.1 709.243 460.42C710.479 457.468 711.087 455.677 711.947 454.013C719.354 439.693 726.842 425.41 734.214 411.068C735.726 408.126 737.464 405.751 740.643 404.245C758.13 395.96 775.523 387.482 792.966 379.098C794.031 378.585 795.217 378.312 797.178 377.645C800.339 399.067 803.434 420.046 806.628 441.72" fill="url(#LinearGradient_21)" fill-rule="evenodd" opacity="1"/>
<path d="M226.867 377.185C235.478 381.286 242.848 384.763 250.193 388.302C260.918 393.464 271.687 398.549 282.297 403.95C284.793 405.217 287.509 407.179 288.782 409.541C297.142 425.041 305.138 440.733 313.228 456.378C313.654 457.204 313.818 458.166 314.517 460.352C281.838 454.094 250.075 448.009 217.349 441.742C220.513 420.282 223.601 399.334 226.867 377.185" fill="url(#LinearGradient_22)" fill-rule="evenodd" opacity="1"/>
<path d="M196.582 3.68448C197.501 6.77014 198.411 9.51432 199.134 12.3051C204.247 31.9769 209.208 51.686 214.5 71.3081C215.506 75.024 217.291 78.7491 219.548 81.872C231.319 98.1477 243.367 114.225 255.294 130.386C256.712 132.31 257.988 134.334 260.403 137.895C257.153 136.718 255.613 136.25 254.139 135.616C231.807 126.046 209.521 116.367 187.127 106.945C182.666 105.067 179.975 102.739 179.009 97.6169C176.485 84.225 173.21 70.9791 170.457 57.6276C169.991 55.3645 169.889 52.49 170.885 50.5436C178.686 35.3233 186.795 20.2582 194.832 5.16212C195.043 4.76788 195.555 4.53505 196.582 3.68448" fill="url(#LinearGradient_23)" fill-rule="evenodd" opacity="1"/>
<path d="M763.99 136.649C765.852 134.013 767.224 131.983 768.686 130.015C780.675 113.885 792.769 97.8269 804.609 81.5884C806.736 78.6766 808.409 75.1781 809.346 71.6982C814.779 51.5886 819.926 31.4015 825.178 11.2423C825.74 9.09413 826.37 6.96459 827.239 3.851C828.63 5.68873 829.751 6.79075 830.424 8.12249C837.4 21.831 844.254 35.5985 851.263 49.2884C852.691 52.076 853.11 54.6743 852.459 57.8127C849.587 71.6547 846.964 85.5463 844.285 99.4287C843.742 102.241 842.736 104.386 839.771 105.637C815.319 115.962 790.925 126.427 766.501 136.817C766.122 136.978 765.582 136.77 763.99 136.649" fill="url(#LinearGradient_24)" fill-rule="evenodd" opacity="1"/>
<path d="M804.306 454.671C794.561 482.88 785.311 509.666 775.715 537.444C750.276 516.573 725.65 496.374 699.555 474.964C735.028 468.091 768.681 461.572 804.306 454.671" fill="url(#LinearGradient_25)" fill-rule="evenodd" opacity="1"/>
<path d="M324.425 474.929C298.417 496.277 273.85 516.442 248.283 537.43C238.691 509.697 229.437 482.935 219.674 454.717C254.79 461.49 288.611 468.019 324.425 474.929" fill="url(#LinearGradient_26)" fill-rule="evenodd" opacity="1"/>
<path d="M622.284 400.14C627.971 395.543 632.873 391.398 638.001 387.555C639.221 386.643 641.326 386.133 642.794 386.459C652.697 388.648 662.537 391.113 673.626 393.782C668.531 401.745 663.94 408.934 659.324 416.111C659.063 416.512 658.657 416.863 658.244 417.117C655.543 418.784 641.419 417.766 638.895 415.705C637.933 414.923 637.073 414.019 636.166 413.169C631.83 409.102 627.496 405.032 622.284 400.14" fill="url(#LinearGradient_27)" fill-rule="evenodd" opacity="1"/>
<path d="M401.084 399.747C395.264 405.521 390.207 410.901 384.7 415.778C383.107 417.19 380.255 417.622 377.948 417.705C365.776 418.14 365.764 418.056 359.279 407.893C356.507 403.55 353.794 399.17 350.407 393.778C357.382 392.095 363.79 391.288 369.604 388.985C379.801 384.946 388.139 386.57 395.335 394.811C396.766 396.45 398.657 397.689 401.084 399.747" fill="url(#LinearGradient_28)" fill-rule="evenodd" opacity="1"/>
</g>
</g>
</svg>
