<?xml version="1.0" encoding="UTF-8" standalone="no"?> <!-- Created with Vectornator for iOS (http://vectornator.io/) --><!DOCTYPE svg PUBLIC "-//W3C//DTD SVG 1.1//EN" "http://www.w3.org/Graphics/SVG/1.1/DTD/svg11.dtd">
<svg style="fill-rule:nonzero;clip-rule:evenodd;stroke-linecap:round;stroke-linejoin:round;" viewBox="0 0 1024 1024" width="100%" xmlns="http://www.w3.org/2000/svg" height="100%" xml:space="preserve" version="1.1" xmlns:vectornator="http://vectornator.io" xmlns:xlink="http://www.w3.org/1999/xlink">
<metadata>
<vectornator:setting key="WDRulersVisible" value="true"/>
<vectornator:setting key="VNSnapToGuides" value="true"/>
<vectornator:setting key="WDOutlineMode" value="false"/>
<vectornator:setting key="WDDisplayWhiteBackground" value="false"/>
<vectornator:setting value="true" key="VNDimensionsVisible"/>
<vectornator:setting value="Pixels" key="WDUnits"/>
<vectornator:setting key="WDCMYKEnabledKey" value="false"/>
<vectornator:setting value="false" key="WDSnapToGrid"/>
<vectornator:setting key="IsTimeLapseWatermarkDisabled" value="false"/>
<vectornator:setting value="true" key="WDGuidesVisible"/>
<vectornator:setting value="false" key="WDIsolateActiveLayer"/>
<vectornator:setting key="UndoHistoryDisabled" value="true"/>
<vectornator:setting key="WDSnapToEdges" value="false"/>
<vectornator:setting value="false" key="WDSnapToPoints"/>
<vectornator:setting value="false" key="WDDynamicGuides"/>
</metadata>
<defs>
<linearGradient y2="260.691" id="LinearGradient" gradientUnits="userSpaceOnUse" x1="83.3309" x2="307.623" gradientTransform="matrix(3.10428 0 0 3.10428 -71.2918 2.57475)" y1="260.691">
<stop stop-color="#81fced" offset="0"/>
<stop offset="1" stop-color="#00f6d8"/>
</linearGradient>
<linearGradient y2="95.7064" x2="292.796" x1="98.4419" y1="95.7064" id="LinearGradient_2" gradientTransform="matrix(3.10428 0 0 3.10428 -71.2918 2.57475)" gradientUnits="userSpaceOnUse">
<stop offset="0" stop-color="#81fced"/>
<stop offset="1" stop-color="#00f6d8"/>
</linearGradient>
<linearGradient y1="229.44" gradientTransform="matrix(3.10428 0 0 3.10428 -71.2918 2.57475)" gradientUnits="userSpaceOnUse" id="LinearGradient_3" x1="158.812" x2="233.037" y2="229.44">
<stop stop-color="#81fced" offset="0"/>
<stop offset="1" stop-color="#00f6d8"/>
</linearGradient>
<linearGradient y1="203.822" x1="259.118" id="LinearGradient_4" gradientTransform="matrix(3.10428 0 0 3.10428 -71.2918 2.57475)" gradientUnits="userSpaceOnUse" y2="203.822" x2="320.575">
<stop offset="0" stop-color="#81fced"/>
<stop stop-color="#00f6d8" offset="1"/>
</linearGradient>
<linearGradient id="LinearGradient_5" gradientTransform="matrix(3.10428 0 0 3.10428 -71.2918 2.57475)" x2="132.493" y2="202.527" y1="202.527" gradientUnits="userSpaceOnUse" x1="71.0218">
<stop offset="0" stop-color="#81fced"/>
<stop offset="1" stop-color="#00f6d8"/>
</linearGradient>
<linearGradient gradientUnits="userSpaceOnUse" y1="85.6565" x2="149.504" y2="85.6565" gradientTransform="matrix(3.10428 0 0 3.10428 -71.2918 2.57475)" x1="79.9813" id="LinearGradient_6">
<stop stop-color="#81fced" offset="0"/>
<stop stop-color="#00f6d8" offset="1"/>
</linearGradient>
<linearGradient x2="310.987" y1="85.7583" y2="85.7583" gradientTransform="matrix(3.10428 0 0 3.10428 -71.2918 2.57475)" gradientUnits="userSpaceOnUse" id="LinearGradient_7" x1="241.671">
<stop offset="0" stop-color="#81fced"/>
<stop offset="1" stop-color="#00f6d8"/>
</linearGradient>
<linearGradient x2="120.752" gradientUnits="userSpaceOnUse" x1="75.3253" id="LinearGradient_8" y1="116.525" y2="116.525" gradientTransform="matrix(3.10428 0 0 3.10428 -71.2918 2.57475)">
<stop stop-color="#81fced" offset="0"/>
<stop stop-color="#00f6d8" offset="1"/>
</linearGradient>
<linearGradient x1="270.723" x2="316.596" y2="116.383" gradientTransform="matrix(3.10428 0 0 3.10428 -71.2918 2.57475)" gradientUnits="userSpaceOnUse" y1="116.383" id="LinearGradient_9">
<stop stop-color="#81fced" offset="0"/>
<stop offset="1" stop-color="#00f6d8"/>
</linearGradient>
<linearGradient gradientUnits="userSpaceOnUse" gradientTransform="matrix(3.10428 0 0 3.10428 -71.2918 2.57475)" y1="159.269" y2="159.269" id="LinearGradient_10" x2="320.82" x1="284.671">
<stop offset="0" stop-color="#81fced"/>
<stop offset="1" stop-color="#00f6d8"/>
</linearGradient>
<linearGradient gradientTransform="matrix(3.10428 0 0 3.10428 -71.2918 2.57475)" y1="159.263" x2="106.878" y2="159.263" gradientUnits="userSpaceOnUse" x1="70.7242" id="LinearGradient_11">
<stop stop-color="#81fced" offset="0"/>
<stop stop-color="#00f6d8" offset="1"/>
</linearGradient>
<linearGradient gradientUnits="userSpaceOnUse" y1="177.249" gradientTransform="matrix(3.10428 0 0 3.10428 -71.2918 2.57475)" x1="183.889" y2="177.249" x2="207.72" id="LinearGradient_12">
<stop stop-color="#81fced" offset="0"/>
<stop offset="1" stop-color="#00f6d8"/>
</linearGradient>
<linearGradient y2="110.815" x1="240.744" x2="285.68" id="LinearGradient_13" gradientTransform="matrix(3.10428 0 0 3.10428 -71.2918 2.57475)" gradientUnits="userSpaceOnUse" y1="110.815">
<stop stop-color="#81fced" offset="0"/>
<stop offset="1" stop-color="#00f6d8"/>
</linearGradient>
<linearGradient gradientUnits="userSpaceOnUse" x2="150.824" gradientTransform="matrix(3.10428 0 0 3.10428 -71.2918 2.57475)" y1="110.759" y2="110.759" x1="106.05" id="LinearGradient_14">
<stop stop-color="#81fced" offset="0"/>
<stop stop-color="#00f6d8" offset="1"/>
</linearGradient>
<linearGradient x2="151.574" gradientTransform="matrix(3.10428 0 0 3.10428 -71.2918 2.57475)" y1="172.026" y2="172.026" x1="113.385" id="LinearGradient_15" gradientUnits="userSpaceOnUse">
<stop offset="0" stop-color="#81fced"/>
<stop stop-color="#00f6d8" offset="1"/>
</linearGradient>
<linearGradient y1="172.17" x1="239.5" gradientUnits="userSpaceOnUse" id="LinearGradient_16" x2="278.294" y2="172.17" gradientTransform="matrix(3.10428 0 0 3.10428 -71.2918 2.57475)">
<stop offset="0" stop-color="#81fced"/>
<stop stop-color="#00f6d8" offset="1"/>
</linearGradient>
<linearGradient gradientUnits="userSpaceOnUse" x2="132.181" y1="48.1276" id="LinearGradient_17" gradientTransform="matrix(3.10428 0 0 3.10428 -71.2918 2.57475)" y2="48.1276" x1="78.1018">
<stop stop-color="#81fced" offset="0"/>
<stop offset="1" stop-color="#00f6d8"/>
</linearGradient>
<linearGradient y2="48.1656" id="LinearGradient_18" gradientUnits="userSpaceOnUse" gradientTransform="matrix(3.10428 0 0 3.10428 -71.2918 2.57475)" x1="259.012" y1="48.1656" x2="313.411">
<stop stop-color="#81fced" offset="0"/>
<stop offset="1" stop-color="#00f6d8"/>
</linearGradient>
<linearGradient x2="173.999" x1="128.126" gradientUnits="userSpaceOnUse" id="LinearGradient_19" gradientTransform="matrix(3.10428 0 0 3.10428 -71.2918 2.57475)" y1="139.313" y2="139.313">
<stop stop-color="#81fced" offset="0"/>
<stop stop-color="#00f6d8" offset="1"/>
</linearGradient>
<linearGradient gradientUnits="userSpaceOnUse" y1="139.324" x1="217.467" y2="139.324" id="LinearGradient_20" gradientTransform="matrix(3.10428 0 0 3.10428 -71.2918 2.57475)" x2="263.621">
<stop stop-color="#81fced" offset="0"/>
<stop offset="1" stop-color="#00f6d8"/>
</linearGradient>
<linearGradient x2="290.682" gradientUnits="userSpaceOnUse" x1="259.311" y1="134.156" y2="134.156" id="LinearGradient_21" gradientTransform="matrix(3.10428 0 0 3.10428 -71.2918 2.57475)">
<stop offset="0" stop-color="#81fced"/>
<stop stop-color="#00f6d8" offset="1"/>
</linearGradient>
<linearGradient gradientUnits="userSpaceOnUse" id="LinearGradient_22" x2="132.156" y1="134.071" y2="134.071" x1="100.855" gradientTransform="matrix(3.10428 0 0 3.10428 -71.2918 2.57475)">
<stop offset="0" stop-color="#81fced"/>
<stop offset="1" stop-color="#00f6d8"/>
</linearGradient>
<linearGradient y1="21.9745" gradientUnits="userSpaceOnUse" y2="21.9745" id="LinearGradient_23" x2="114.724" x1="85.639" gradientTransform="matrix(3.10428 0 0 3.10428 -71.2918 2.57475)">
<stop stop-color="#81fced" offset="0"/>
<stop offset="1" stop-color="#00f6d8"/>
</linearGradient>
<linearGradient gradientTransform="matrix(3.10428 0 0 3.10428 -71.2918 2.57475)" id="LinearGradient_24" y2="21.8371" x1="276.947" x2="305.543" gradientUnits="userSpaceOnUse" y1="21.8371">
<stop offset="0" stop-color="#81fced"/>
<stop offset="1" stop-color="#00f6d8"/>
</linearGradient>
<linearGradient y1="158.968" x1="256.19" id="LinearGradient_25" gradientTransform="matrix(3.10428 0 0 3.10428 -71.2918 2.57475)" gradientUnits="userSpaceOnUse" y2="158.968" x2="289.934">
<stop stop-color="#81fced" offset="0"/>
<stop offset="1" stop-color="#00f6d8"/>
</linearGradient>
<linearGradient x1="101.604" y1="158.974" gradientUnits="userSpaceOnUse" y2="158.974" id="LinearGradient_26" x2="135.348" gradientTransform="matrix(3.10428 0 0 3.10428 -71.2918 2.57475)">
<stop offset="0" stop-color="#81fced"/>
<stop offset="1" stop-color="#00f6d8"/>
</linearGradient>
<linearGradient y2="128.719" id="LinearGradient_27" gradientUnits="userSpaceOnUse" gradientTransform="matrix(3.10428 0 0 3.10428 -71.2918 2.57475)" y1="128.719" x1="231.299" x2="247.838">
<stop offset="0" stop-color="#81fced"/>
<stop offset="1" stop-color="#00f6d8"/>
</linearGradient>
<linearGradient x2="160.042" x1="143.717" gradientUnits="userSpaceOnUse" y1="128.782" gradientTransform="matrix(3.10428 0 0 3.10428 -71.2918 2.57475)" id="LinearGradient_28" y2="128.782">
<stop offset="0" stop-color="#81fced"/>
<stop offset="1" stop-color="#00f6d8"/>
</linearGradient>
</defs>
<g id="Layer 1" vectornator:layerName="Layer 1">
<path fill="url(#LinearGradient)" d="M883.656+739.66C768.36+832.763+653.865+925.224+538.643+1018.27C421.671+922.166+304.791+826.142+187.391+729.692C190.079+727.587+191.941+726.013+193.919+724.598C245.385+687.731+296.882+650.908+348.301+613.977C351.877+611.413+355.497+610.047+359.895+609.699C373.256+608.64+386.586+607.197+399.934+605.937C402.62+605.685+405.32+605.586+408.288+605.396C451.078+693.564+493.712+781.409+537.082+870.775C580.917+781.344+623.911+693.626+667.107+605.499C674.489+606.148+681.62+606.741+688.741+607.411C696.651+608.162+704.539+609.208+712.464+609.687C716.909+609.957+720.43+611.481+723.907+614.216C760.003+642.623+796.196+670.903+832.364+699.22C847.221+710.852+862.084+722.474+876.935+734.115C878.866+735.63+880.729+737.238+883.656+739.66" opacity="1"/>
<path fill="url(#LinearGradient_2)" d="M406.373+182.202C409.123+182.202+411.833+182.202+414.546+182.202C495.745+182.159+576.944+182.041+658.142+182.227C664.484+182.239+667.806+180.11+670.91+174.736C684.2+151.74+697.921+128.988+711.648+106.25C713.526+103.136+715.963+100.125+718.781+97.8525C756.449+67.4306+794.231+37.1483+831.994+6.84743C833.5+5.63986+835.108+4.55957+837.629+2.72183C837.436+5.3791+837.557+6.98091+837.179+8.45233C832.171+27.9193+827.18+47.3893+821.949+66.7973C821.07+70.0537+819.549+73.3473+817.556+76.0605C800.529+99.2898+783.366+122.423+766.119+145.485C764.073+148.219+761.45+150.631+758.743+152.742C742.299+165.572+725.837+178.387+709.18+190.934C705.315+193.843+703.359+197.245+702.422+201.849C695.524+235.645+688.502+269.417+681.446+303.182C680.586+307.298+679.534+311.405+678.18+315.385C672.099+333.238+665.773+351.01+659.778+368.89C658.291+373.323+655.951+376.663+652.288+379.572C631.284+396.245+610.42+413.095+589.525+429.899C587.424+431.587+585.397+433.363+582.659+435.663C585.245+437.495+587.318+439.084+589.507+440.497C610.585+454.081+631.66+467.665+652.794+481.169C656.01+483.221+658.53+485.555+660.21+489.15C675.961+522.884+691.87+556.547+707.705+590.244C708.522+591.983+709.08+593.845+710.086+596.524C707.519+596.524+705.644+596.679+703.803+596.502C671.925+593.454+639.988+590.862+608.207+587.009C597.801+585.749+587.796+581.198+576.823+577.914C579.7+570.088+581.991+562.809+585.046+555.864C587.418+550.463+587.237+545.816+584.925+540.337C570.058+505.125+555.546+469.764+540.903+434.459C539.959+432.18+538.901+429.952+537.535+426.894C536.337+428.822+535.321+430.069+534.713+431.494C518.769+468.677+502.913+505.895+486.895+543.044C485.392+546.527+485.315+549.5+486.783+552.952C489.409+559.114+491.688+565.422+494.053+571.693C494.73+573.493+495.192+575.372+495.919+577.765C481.844+582.126+468.567+587.286+453.964+588.453C426.498+590.645+399.099+593.671+371.67+596.319C368.991+596.577+366.29+596.605+362.919+596.772C363.605+594.593+363.916+592.96+364.602+591.504C380.644+557.357+396.784+523.254+412.733+489.066C414.425+485.444+416.965+483.153+420.165+481.11C441.085+467.737+461.955+454.292+482.834+440.86C485.082+439.413+487.289+437.902+490.334+435.878C487.727+433.636+485.774+431.861+483.722+430.209C462.638+413.235+441.585+396.227+420.401+379.386C416.946+376.639+414.664+373.519+413.252+369.334C407.068+350.994+400.068+332.902+394.521+314.379C390.401+300.633+387.943+286.385+384.956+272.313C379.962+248.767+374.976+225.215+370.376+201.588C369.435+196.752+367.194+193.657+363.45+190.81C347.041+178.343+330.728+165.746+314.52+153.016C311.251+150.448+308.203+147.397+305.713+144.075C289.037+121.821+272.46+99.4916+256.067+77.029C253.655+73.726+251.767+69.7526+250.696+65.8039C245.428+46.4053+240.52+26.9135+235.488+7.45276C235.187+6.28865+234.917+5.11834+234.299+2.57594C236.792+4.11566+238.416+4.90103+239.782+5.99685C278.141+36.7541+316.498+67.5082+354.752+98.3927C357.365+100.507+359.514+103.434+361.258+106.352C374.889+129.15+388.368+152.041+401.903+174.898C403.29+177.238+404.743+179.539+406.373+182.202" opacity="1"/>
<path d="M536.822+841.231C498.245+761.734+460.184+683.295+421.706+604.005C448.822+601.038+475.382+600.733+500.499+588.412C512.745+619.843+524.569+650.194+536.394+680.544C536.909+680.575+537.424+680.606+537.937+680.637C549.342+650.483+560.744+620.328+572.245+589.909C586.149+592.448+598.299+599.377+612.16+600.085C625.502+600.767+638.795+602.556+652.121+603.859C651.302+609.689+546.79+824.869+536.822+841.231" opacity="1" fill="url(#LinearGradient_3)"/>
<path opacity="1" d="M923.863+544.281C912.399+605.433+901.068+665.879+889.725+726.378C884.591+724.578+740.949+612.979+733.083+604.719C734.527+603.486+735.858+602.133+737.389+601.071C758.619+586.372+779.837+571.652+801.179+557.118C803.733+555.379+806.928+553.911+809.945+553.631C845.3+550.369+880.679+547.348+916.053+544.306C918.238+544.117+920.448+544.281+923.863+544.281" fill="url(#LinearGradient_4)"/>
<path opacity="1" fill="url(#LinearGradient_5)" d="M149.18+544.407C152.83+544.407+155.758+544.19+158.648+544.438C193.267+547.415+227.886+550.408+262.489+553.574C265.311+553.832+268.387+554.844+270.715+556.433C292.868+571.526+314.886+586.818+336.93+602.069C337.721+602.615+338.392+603.339+340.003+604.754C287.094+642.571+234.585+680.098+181.228+718.234C170.425+659.644+159.846+602.265+149.18+544.407"/>
<path fill="url(#LinearGradient_6)" d="M176.993+183.551C237.7+190.464+297.535+197.275+357.724+204.13C360.344+216.587+362.874+228.445+365.335+240.319C369.97+262.673+374.071+285.154+379.367+307.353C382.409+320.099+387.367+332.383+391.446+344.881C392.277+347.42+393.05+349.975+392.74+353.402C391.042+351.856+389.307+350.35+387.652+348.758C366.552+328.422+345.4+308.148+324.446+287.666C320.829+284.13+316.992+282.541+312.032+282.025C285.857+279.321+259.722+276.239+233.549+273.504C229.706+273.1+227.304+271.806+225.332+268.373C210.121+241.893+194.715+215.525+179.405+189.105C178.573+187.668+178.064+186.044+176.993+183.551" opacity="1"/>
<path fill="url(#LinearGradient_7)" d="M678.922+352.887C679.251+351.717+679.477+350.5+679.934+349.383C691.82+320.237+697.563+289.486+703.719+258.837C707.043+242.294+710.573+225.795+714.031+209.277C714.329+207.84+714.767+206.431+715.375+204.112C774.577+197.375+833.925+190.624+894.098+183.776C893.313+185.731+893.027+187.1+892.291+188.165C873.973+214.735+855.53+241.217+837.339+267.877C834.862+271.506+831.665+272.269+827.933+272.775C805.8+275.786+783.688+278.984+761.52+281.719C756.237+282.371+752.354+284.391+748.604+288.033C727.594+308.45+706.395+328.671+685.242+348.945C683.491+350.624+681.629+352.192+679.816+353.809C679.518+353.502+679.22+353.195+678.922+352.887" opacity="1"/>
<path opacity="1" d="M228.462+440.718C206.129+441.625+184.384+442.509+162.539+443.397C163.222+437.331+221.052+298.648+228.399+285.206C252.743+287.913+277.432+290.66+303.557+293.566C300.701+296.875+298.969+298.924+297.19+300.929C279.726+320.586+262.354+340.329+244.697+359.811C241.127+363.757+239.625+368.035+238.914+373.064C235.921+394.176+232.767+415.263+229.644+436.357C229.467+437.543+229.02+438.688+228.462+440.718" fill="url(#LinearGradient_8)"/>
<path opacity="1" fill="url(#LinearGradient_9)" d="M769.107+293.168C791.96+290.057+812.98+287.192+834.418+284.274C860.053+337.202+885.427+389.596+911.509+443.446C888.143+442.49+866.258+441.593+843.966+440.68C841.862+426.726+839.847+413.505+837.87+400.278C836.33+389.969+834.666+379.675+833.399+369.331C832.937+365.535+830.873+363.005+828.557+360.394C810.912+340.533+793.277+320.656+775.651+300.78C773.866+298.765+772.14+296.697+769.107+293.168"/>
<path d="M914.902+455.897C918.198+481.433+921.362+505.888+924.624+531.139C887.022+534.46+850.382+537.695+812.408+541.047C822.739+511.122+832.641+482.417+842.814+452.936C866.674+453.913+890.369+454.888+914.902+455.897" opacity="1" fill="url(#LinearGradient_10)"/>
<path d="M260.488+541.066C222.212+537.679+185.759+534.454+148.256+531.139C151.518+505.861+154.7+481.228+157.969+455.934C182.105+454.91+205.558+453.917+229.988+452.88C240.034+481.927+250.014+510.787+260.488+541.066" fill="url(#LinearGradient_11)" opacity="1"/>
<path d="M536.922+646.093C535.485+642.818+534.638+641.058+533.93+639.242C522.882+610.788+511.896+582.313+500.764+553.893C499.326+550.221+499.016+547.045+500.661+543.245C512.014+517.061+523.124+490.774+534.349+464.536C534.991+463.031+535.954+461.665+537.174+459.52C538.391+462.093+539.279+463.791+540.008+465.555C550.771+491.451+561.487+517.362+572.283+543.245C573.568+546.328+574.062+549.091+572.774+552.474C561.446+582.148+550.32+611.9+539.117+641.62C538.698+642.722+538.08+643.75+536.922+646.093" opacity="1" fill="url(#LinearGradient_12)"/>
<path opacity="1" fill="url(#LinearGradient_13)" d="M676.045+375.092C702.847+349.246+729.051+323.977+755.189+298.77C760.283+301.992+805.767+352.294+815.539+365.45C813.934+366.474+812.447+367.645+810.786+368.449C794.033+376.573+777.229+384.588+760.497+392.752C757.467+394.233+754.701+394.838+751.274+393.994C727.902+388.226+704.471+382.676+681.071+377.016C679.711+376.687+678.432+376.017+676.045+375.092"/>
<path opacity="1" fill="url(#LinearGradient_14)" d="M396.91+375.136C394.327+376.061+392.8+376.772+391.195+377.163C368.313+382.707+345.416+388.193+322.537+393.749C319.34+394.525+316.437+394.808+313.237+393.234C295.449+384.474+277.559+375.918+259.713+367.276C259.064+366.962+258.505+366.453+257.919+366.047C260.002+361.291+309.518+304.867+317.344+298.429C343.643+323.782+369.986+349.181+396.91+375.136"/>
<path fill="url(#LinearGradient_15)" opacity="1" d="M348.245+594.679C325.633+579.111+303.397+563.804+280.686+548.167C282.086+546.615+283.036+545.255+284.269+544.237C309.718+523.262+335.21+502.333+360.668+481.363C362.826+479.584+364.862+478.017+367.969+478.65C378.39+480.764+388.839+482.745+399.236+484.772C398.587+490.381+355.099+584.062+348.245+594.679"/>
<path fill="url(#LinearGradient_16)" d="M792.61+547.877C769.511+563.777+747.3+579.065+724.099+595.034C706.528+558.437+689.716+522.201+672.183+485.211C680.167+483.565+687.338+482.05+694.524+480.616C707.953+477.94+707.963+477.953+718.377+486.505C740.986+505.069+763.588+523.635+786.184+542.218C788.062+543.764+789.838+545.431+792.61+547.877" opacity="1"/>
<path fill="url(#LinearGradient_17)" d="M338.348+189.526C282.735+183.212+227.125+176.898+171.158+170.544L171.158+115.437C176.814+113.748+182.507+114.949+188.073+114.524C194.912+114.002+201.173+115.62+207.472+118.373C237.239+131.365+267.155+144.011+296.965+156.91C300.33+158.366+303.565+160.334+306.502+162.541C315.817+169.544+324.972+176.762+334.161+183.932C335.856+185.255+337.414+186.745+339.034+188.16C338.805+188.614+338.578+189.07+338.348+189.526" opacity="1"/>
<path opacity="1" d="M901.623+114.541L901.623+170.558C845.743+176.903+790.161+183.214+732.754+189.73C735.361+187.169+736.569+185.732+738.015+184.602C747.996+176.82+757.982+169.046+768.068+161.407C770.409+159.628+773.026+158.088+775.723+156.927C806.934+143.483+838.16+130.072+869.463+116.848C872.778+115.448+876.594+114.821+880.219+114.641C887.114+114.299+894.037+114.541+901.623+114.541" fill="url(#LinearGradient_18)"/>
<path opacity="1" d="M435.733+407.666C447.107+416.814+457.702+425.335+468.85+434.304C466.888+435.89+465.54+437.2+463.994+438.199C447.113+449.108+430.148+459.886+413.345+470.912C409.943+473.144+406.77+473.629+402.874+472.831C389.023+469.99+375.125+467.383+361.23+464.757C357.949+464.133+355.351+463.124+353.64+459.74C345.014+442.698+336.132+425.785+327.363+408.814C327.03+408.172+326.919+407.414+326.447+405.853C337.942+402.153+349.72+399.958+361.68+396.891C367.625+406.207+373.592+415.026+378.962+424.196C381.703+428.877+385.031+430.715+390.367+430.277C395.545+429.849+400.804+429.889+405.988+430.268C410.917+430.631+414.404+428.797+417.716+425.32C423.328+419.422+429.332+413.893+435.733+407.666" fill="url(#LinearGradient_19)"/>
<path d="M636.729+408.043C642.528+413.482+648.289+418.2+653.2+423.679C657.965+428.997+663.364+430.943+670.296+430.267C674.716+429.832+679.23+429.941+683.675+430.251C688.142+430.558+690.973+428.978+693.314+425.073C698.911+415.732+704.946+406.652+711.173+396.883C723.006+399.78+734.675+402.635+747.061+405.668C744.628+410.464+742.65+414.419+740.617+418.346C733.772+431.552+726.784+444.689+720.122+457.988C718.185+461.853+715.786+464.1+711.39+464.873C697.228+467.366+683.119+470.15+669.017+472.963C665.928+473.575+663.348+473.345+660.598+471.551C642.525+459.776+624.349+448.15+606.211+436.466C605.596+436.065+605.068+435.528+603.786+434.457C614.856+425.579+625.582+416.98+636.729+408.043" opacity="1" fill="url(#LinearGradient_20)"/>
<path fill="url(#LinearGradient_21)" opacity="1" d="M831.068+441.72C798.386+447.994+766.604+454.1+733.683+460.42C734.919+457.468+735.527+455.677+736.387+454.013C743.794+439.693+751.282+425.41+758.654+411.068C760.166+408.126+761.904+405.751+765.083+404.245C782.57+395.96+799.963+387.482+817.406+379.098C818.471+378.585+819.657+378.312+821.618+377.645C824.779+399.067+827.874+420.046+831.068+441.72"/>
<path opacity="1" d="M251.307+377.185C259.918+381.286+267.288+384.763+274.633+388.302C285.358+393.464+296.127+398.549+306.737+403.95C309.233+405.217+311.949+407.179+313.222+409.541C321.582+425.041+329.578+440.733+337.668+456.378C338.094+457.204+338.258+458.166+338.957+460.352C306.278+454.094+274.515+448.009+241.789+441.742C244.953+420.282+248.041+399.334+251.307+377.185" fill="url(#LinearGradient_22)"/>
<path d="M221.022+3.68448C221.941+6.77014+222.851+9.51432+223.574+12.3051C228.687+31.9769+233.648+51.686+238.94+71.3081C239.946+75.024+241.731+78.7491+243.988+81.872C255.759+98.1477+267.807+114.225+279.734+130.386C281.152+132.31+282.428+134.334+284.843+137.895C281.593+136.718+280.053+136.25+278.579+135.616C256.247+126.046+233.961+116.367+211.567+106.945C207.106+105.067+204.415+102.739+203.449+97.6169C200.925+84.225+197.65+70.9791+194.897+57.6276C194.431+55.3645+194.329+52.49+195.325+50.5436C203.126+35.3233+211.235+20.2582+219.272+5.16212C219.483+4.76788+219.995+4.53505+221.022+3.68448" opacity="1" fill="url(#LinearGradient_23)"/>
<path d="M788.43+136.649C790.292+134.013+791.664+131.983+793.126+130.015C805.115+113.885+817.209+97.8269+829.049+81.5884C831.176+78.6766+832.849+75.1781+833.786+71.6982C839.219+51.5886+844.366+31.4015+849.618+11.2423C850.18+9.09413+850.81+6.96459+851.679+3.851C853.07+5.68873+854.191+6.79075+854.864+8.12249C861.84+21.831+868.694+35.5985+875.703+49.2884C877.131+52.076+877.55+54.6743+876.899+57.8127C874.027+71.6547+871.404+85.5463+868.725+99.4287C868.182+102.241+867.176+104.386+864.211+105.637C839.759+115.962+815.365+126.427+790.941+136.817C790.562+136.978+790.022+136.77+788.43+136.649" opacity="1" fill="url(#LinearGradient_24)"/>
<path opacity="1" d="M828.746+454.671C819.001+482.88+809.751+509.666+800.155+537.444C774.716+516.573+750.09+496.374+723.995+474.964C759.468+468.091+793.121+461.572+828.746+454.671" fill="url(#LinearGradient_25)"/>
<path d="M348.865+474.929C322.857+496.277+298.29+516.442+272.723+537.43C263.131+509.697+253.877+482.935+244.114+454.717C279.23+461.49+313.051+468.019+348.865+474.929" opacity="1" fill="url(#LinearGradient_26)"/>
<path d="M646.724+400.14C652.411+395.543+657.313+391.398+662.441+387.555C663.661+386.643+665.766+386.133+667.234+386.459C677.137+388.648+686.977+391.113+698.066+393.782C692.971+401.745+688.38+408.934+683.764+416.111C683.503+416.512+683.097+416.863+682.684+417.117C679.983+418.784+665.859+417.766+663.335+415.705C662.373+414.923+661.513+414.019+660.606+413.169C656.27+409.102+651.936+405.032+646.724+400.14" opacity="1" fill="url(#LinearGradient_27)"/>
<path fill="url(#LinearGradient_28)" d="M425.524+399.747C419.704+405.521+414.647+410.901+409.14+415.778C407.547+417.19+404.695+417.622+402.388+417.705C390.216+418.14+390.204+418.056+383.719+407.893C380.947+403.55+378.234+399.17+374.847+393.778C381.822+392.095+388.23+391.288+394.044+388.985C404.241+384.946+412.579+386.57+419.775+394.811C421.206+396.45+423.097+397.689+425.524+399.747" opacity="1"/>
</g>
</svg>
